<?xml version="1.0" encoding="UTF-8"?><svg id="Capa_1" xmlns="http://www.w3.org/2000/svg" viewBox="0 0 6445.83 1926.13"><defs><style>.cls-1{fill:#bf1f3e;}.cls-2{fill:#691c32;}.cls-3{fill:#805374;}.cls-4{fill:#393c3d;}</style></defs><path class="cls-3" d="M127.58,1736.31c-20.62-11.42-46.62-4-58.04,16.6-11.43,20.62-3.98,46.59,16.6,58.02,20.6,11.46,46.59,4.03,58.02-16.58,11.48-20.6,4.04-46.58-16.58-58.04"/><path class="cls-3" d="M1195.04,873.14c20.6,11.46,46.58,4.03,58.02-16.56,11.47-20.62,4.02-46.59-16.58-58.06-20.62-11.42-46.63-3.99-58.04,16.62-11.44,20.6-3.99,46.56,16.6,58"/><path class="cls-3" d="M1236.01,955l239.71,420.58h98l-263.73-462.75c-11.63-20.44-37.65-27.55-58.06-15.9-20.44,11.63-27.55,37.63-15.92,58.06"/><path class="cls-3" d="M1683.91,1574.25h-94.96l8.44,14.82c16.72,29.36,16.55,65.69-.48,94.93-16.9,29.1-48.37,47.17-82.12,47.17H220.43c-23.51,0-42.57,19.06-42.57,42.57s19.06,42.57,42.57,42.57H1514.79c64.01,0,123.69-34.32,155.72-89.51,27.12-46.56,31.56-102.74,13.4-152.55"/><path class="cls-1" d="M2365.82,1454.1c-11.42-20.62-37.43-28.04-58.04-16.6-20.61,11.45-28.06,37.43-16.58,58.04,11.43,20.61,37.43,28.01,58.02,16.58,20.59-11.44,28.04-37.43,16.6-58.02"/><path class="cls-1" d="M1089.52,103.15c20.6-11.44,28.04-37.41,16.62-58-11.43-20.62-37.45-28.04-58.06-16.62-20.59,11.47-28.03,37.45-16.56,58.06,11.42,20.59,37.41,28.02,58,16.56"/><path class="cls-1" d="M2214.92,1432.35h-180.45l49.96,85.15h130.49c23.51,0,42.57-19.06,42.57-42.57s-19.06-42.57-42.57-42.57"/><path class="cls-1" d="M505.63,1432.35c-33.77,0-65.24-18.09-82.11-47.17-17.05-29.24-17.21-65.59-.49-94.93L1049.01,186.42c11.64-20.44,4.53-46.43-15.89-58.06-20.44-11.65-46.43-4.54-58.08,15.9L349.04,1248.09c-31.7,55.62-31.38,124.56,.86,179.88,32.03,55.18,91.71,89.52,155.72,89.52H1854.07l-49.96-85.15H505.63Z"/><path class="cls-2" d="M2167.38,1816.31c-23.58,.49-42.24,20.04-41.71,43.62,.55,23.57,20.09,42.28,43.64,41.71,23.57-.56,42.22-20.12,41.69-43.66-.52-23.56-20.08-42.24-43.62-41.67"/><path class="cls-2" d="M708.59,1217.04c-23.57,.51-42.24,20.07-41.71,43.66,.55,23.57,20.1,42.24,43.66,41.67,23.55-.52,42.18-20.07,41.67-43.66-.52-23.56-20.07-42.22-43.62-41.67"/><path class="cls-2" d="M2147.77,1739.4L1413.83,488.95c-32.34-55.25-92.12-89.37-155.93-89.14-64.02,.16-123.67,34.71-155.62,90.19l-374.28,650.38c-11.75,20.4-4.75,46.45,15.61,58.16,20.38,11.75,46.41,4.76,58.15-15.63l374.26-650.38c16.9-29.27,48.32-47.5,82.17-47.58,33.62-.11,65.14,17.86,82.21,47.02l733.88,1250.45c11.89,20.32,37.98,27.1,58.27,15.23,20.31-11.88,27.09-37.98,15.22-58.25"/><path class="cls-4" d="M2307.41,726.9c0,40.01-38.57,70.65-90.46,70.65-35.68,0-61.27-7.21-89.02-21.27-2.88-1.44-3.96-4.69-2.52-7.57l11.89-25.59c1.43-2.88,4.69-4.33,7.57-2.88,21.98,9.73,45.05,17.3,69.2,17.3s47.57-11.89,47.57-30.99c0-59.83-135.51-27.03-135.51-116.41,0-45.05,33.51-71.72,80.37-71.72,13.7,0,46.13,2.52,83.6,19.1,3.25,1.44,4.34,5.05,3.25,7.92l-11.89,26.31c-1.08,3.24-4.69,4.33-7.57,3.24-18.01-6.84-45.42-14.77-59.46-14.77-23.79,0-42.53,4.68-43.97,27.38,.73,50.45,136.96,21.27,136.96,119.29"/><rect class="cls-4" x="2411.91" y="542.38" width="30.64" height="252.28" rx="5.41" ry="5.41"/><path class="cls-4" d="M2579.63,601.48c0,63.44,145.24,31,145.24,127.59,0,38.57-36.41,69.55-88.3,69.55-34.96,0-58.39-6.84-84.69-19.45-2.52-1.43-3.61-4.69-2.52-7.57,2.52-5.05,4.68-9.72,7.2-14.41,1.08-2.88,4.33-3.97,7.21-2.88,21.27,9,44.34,15.86,69.92,15.86,30.64,0,56.59-15.86,58.38-40.38,5.78-71.72-139.82-35.31-143.8-123.6-1.8-45.79,32.8-67.76,77.13-67.76,13.7,0,44.34,2.88,79.29,16.58,2.88,1.08,4.33,4.33,3.24,7.21-2.15,5.76-3.6,10.45-5.41,15.5-1.08,2.88-4.32,4.33-7.2,3.23-18.02-5.76-45.06-13.33-68.84-13.33s-45.79,9.01-46.86,33.52v.35Z"/><path class="cls-4" d="M2881.31,568.33h-69.91c-2.89,0-5.41-2.52-5.41-5.41v-15.14c0-2.88,2.51-5.41,5.41-5.41h171.54c2.88,0,5.41,2.52,5.41,5.41v15.14c0,2.88-2.52,5.41-5.41,5.41h-70.64v220.93c0,2.89-2.52,5.41-5.41,5.41h-20.19c-2.88,0-5.41-2.51-5.41-5.41v-220.93Z"/><path class="cls-4" d="M3115.65,683.3v85.42h127.22c2.88,0,5.41,2.52,5.41,5.41v15.14c0,2.88-2.52,5.41-5.41,5.41h-152.45c-2.88,0-5.41-2.52-5.41-5.41v-241.47c0-2.88,2.52-5.41,5.41-5.41h152.45c2.88,0,5.41,2.52,5.41,5.41v15.14c0,2.88-2.52,5.41-5.41,5.41h-127.22v89.02h98.39c2.87,0,5.4,2.52,5.4,5.4v15.15c0,2.87-2.52,5.4-5.4,5.4h-98.39Z"/><path class="cls-4" d="M3513.05,792.87c-1.07,2.88-3.97,4.69-6.85,4.69-3.24,0-5.77-1.8-7.2-4.69l-74.24-177.32-55.51,174.08c-.72,2.88-3.6,5.05-6.85,5.05h-22.34c-2.52,0-4.7-2.52-3.61-5.05l79.29-245.44c.73-2.16,3.24-3.96,5.77-3.96s5.05,1.44,6.13,3.96l78.57,191.01,78.93-191.01c.72-2.52,3.24-3.96,5.41-3.96,2.52,0,4.69,1.44,5.77,3.96l79.66,245.44c1.07,2.52-1.09,5.05-3.61,5.05h-22.34c-3.25,0-6.14-2.16-7.21-5.05l-55.51-174.44-74.24,177.68Z"/><path class="cls-4" d="M3920.41,725.11h-100.19l-25.95,64.51c-1.44,3.24-4.32,5.05-7.56,5.05h-22.71c-2.52,0-4.34-2.52-3.24-5.05l102.35-244.72c1.09-2.87,3.96-4.68,7.21-4.68,2.88,0,5.41,1.8,6.5,4.68l104.15,244.72c1.08,2.52-.72,5.05-3.24,5.05h-23.43c-3.23,0-6.12-1.8-7.57-5.05l-26.3-64.51Zm-90.1-25.23h79.65l-40.01-98.39-39.64,98.39Z"/><path class="cls-4" d="M4249.15,794.66c-3.24,0-5.77-2.52-5.77-5.77v-244.71c0-2.52,2.16-4.68,4.32-4.68,2.89,0,5.78,1.07,7.93,3.23l149.58,152.09v-146.68c0-3.24,2.52-5.77,5.77-5.77h32.79c3.24,0,5.78,2.52,5.78,5.77v245.08c0,2.52-2.17,4.69-5.06,4.69s-5.76-1.08-7.92-3.6l-148.85-154.97v149.57c0,3.24-2.52,5.77-5.78,5.77h-32.79Z"/><path class="cls-4" d="M4704.66,725.11h-100.19l-25.95,64.51c-1.44,3.24-4.32,5.05-7.56,5.05h-22.71c-2.52,0-4.34-2.52-3.24-5.05l102.35-244.72c1.09-2.87,3.96-4.68,7.21-4.68,2.88,0,5.41,1.8,6.5,4.68l104.15,244.72c1.08,2.52-.72,5.05-3.24,5.05h-23.43c-3.23,0-6.12-1.8-7.57-5.05l-26.3-64.51Zm-90.1-25.23h79.65l-40.01-98.39-39.64,98.39Z"/><path class="cls-4" d="M5035.58,591.03c-2.16,1.81-5.76,1.81-7.93,0-16.57-13.69-42.52-26.66-67.75-26.66-81.8,0-93.35,77.49-93.35,103.08s11.54,102.72,93.35,102.72c27.03,0,51.18-12.27,68.48-25.59,2.52-1.81,5.77-1.45,7.57,.71,3.6,4.69,7.21,8.66,11.17,13.34,1.8,2.52,1.44,5.77-.72,7.93-21.98,19.1-48.65,31.36-86.5,31.36-96.23,0-124.7-76.41-124.7-130.46s28.47-129.39,124.7-129.39c39.29,0,65.59,13.34,86.86,33.88,2.16,2.16,2.16,5.77,0,7.93l-11.17,11.16Z"/><rect class="cls-4" x="5149.21" y="542.38" width="30.64" height="252.28" rx="5.41" ry="5.41"/><path class="cls-4" d="M5534.97,668.16c0,54.06-28.48,129.75-124.7,129.75s-124.7-75.69-124.7-129.75,28.47-129.38,124.7-129.38,124.7,76.77,124.7,129.38m-31.71,0c0-25.59-11.53-101.27-92.99-101.27s-93.35,75.67-93.35,101.27,11.53,102.01,93.35,102.01,92.99-76.42,92.99-102.01"/><path class="cls-4" d="M5646.88,794.66c-2.88,0-5.41-2.52-5.41-5.41v-243.63c0-2.88,2.52-5.41,5.41-5.41h.36c3.23,0,6.85,1.44,9.01,3.96l157.5,182.01v-178.4c0-2.88,2.52-5.41,5.41-5.41h19.82c2.88,0,5.41,2.52,5.41,5.41v243.99c0,2.88-2.52,5.05-5.41,5.05-3.25,0-6.5-1.44-8.66-3.96l-157.85-182.73v179.12c0,2.88-2.52,5.41-5.41,5.41h-20.19Z"/><path class="cls-4" d="M6099.51,725.11h-100.19l-25.95,64.51c-1.44,3.24-4.32,5.05-7.56,5.05h-22.71c-2.52,0-4.34-2.52-3.24-5.05l102.35-244.72c1.09-2.87,3.96-4.68,7.21-4.68,2.88,0,5.41,1.8,6.5,4.68l104.15,244.72c1.08,2.52-.72,5.05-3.24,5.05h-23.43c-3.23,0-6.12-1.8-7.57-5.05l-26.3-64.51Zm-90.1-25.23h79.65l-40.01-98.39-39.64,98.39Z"/><path class="cls-4" d="M6286.16,768.71h93.7c2.88,0,5.41,2.52,5.41,5.41v15.14c0,2.88-2.52,5.41-5.41,5.41h-118.93c-2.88,0-5.41-2.52-5.41-5.41v-241.47c0-2.89,2.52-5.41,5.41-5.41h19.82c2.88,0,5.41,2.51,5.41,5.41v220.93Z"/><path class="cls-4" d="M2348.85,1212.79c1.08,2.51-.71,5.41-3.6,5.41h-44.33c-3.6,0-7.21-2.16-8.29-5.78l-21.99-53.34h-77.85l-21.62,53.34c-1.45,3.61-4.69,5.78-8.29,5.78h-44.7c-2.87,0-4.69-2.89-3.6-5.41l110.65-246.16c1.08-2.16,3.59-3.97,6.12-3.97,2.89,0,5.41,1.8,6.5,3.97l111,246.16Zm-139.83-94.07h45.41l-22.7-56.58-22.71,56.58Z"/><path class="cls-4" d="M2474.07,1218.19c-3.24,0-6.13-2.88-6.13-6.13v-243.98c0-2.89,2.16-5.05,4.68-5.05,3.25,0,6.14,1.07,8.66,3.59l143.08,142.37v-136.96c0-3.24,2.88-6.13,6.13-6.13h38.92c3.24,0,6.13,2.88,6.13,6.13v243.99c0,2.52-1.8,4.33-4.33,4.33-2.88,0-5.41-1.08-7.56-2.88l-144.53-145.96v140.56c0,3.24-2.88,6.13-6.13,6.13h-38.92Z"/><path class="cls-4" d="M2863.92,1012.76h-61.99c-3.24,0-6.13-2.88-6.13-6.12v-34.6c0-3.25,2.88-6.14,6.13-6.14h176.24c3.23,0,6.12,2.88,6.12,6.14v34.6c0,3.23-2.88,6.12-6.12,6.12h-62.72v199.3c0,3.24-2.88,6.14-6.13,6.14h-39.28c-3.24,0-6.13-2.89-6.13-6.14v-199.3Z"/><rect class="cls-4" x="3104.56" y="965.9" width="51.17" height="252.28" rx="6.13" ry="6.13"/><path class="cls-4" d="M3480.55,1037.62c-2.17,2.52-6.13,2.17-8.29-.35-14.78-14.79-39.65-27.39-60.91-27.39-64.51,0-73.53,61.27-73.53,81.8s9.38,81.46,73.88,81.46c21.99,0,46.13-11.53,63.08-25.23,2.52-2.16,6.48-1.8,8.64,.72l20.91,25.59c2.17,2.52,2.17,6.49-.36,9.01-25.23,23.43-54.42,38.2-92.62,38.2-96.23,0-125.42-75.68-125.42-129.75s29.19-129.37,125.42-129.37c41.08,0,69.91,16.93,94.43,42.88,2.15,2.16,2.15,6.13-.37,8.65l-24.86,23.78Z"/><path class="cls-4" d="M3865.26,1091.68c0,54.06-29.2,130.46-124.71,130.46s-125.42-76.41-125.42-130.46,29.19-130.1,125.42-130.1,124.71,77.49,124.71,130.1m-51.9,0c0-20.55-9.37-82.52-72.8-82.52s-73.52,61.98-73.52,82.52,9.01,83.25,73.52,83.25,72.8-62.71,72.8-83.25"/><path class="cls-4" d="M4046.68,1212.06c0,3.24-2.88,6.13-6.12,6.13h-38.2c-3.25,0-6.14-2.88-6.14-6.13v-240.03c0-3.24,2.88-6.13,6.14-6.13h89.37c69.2,0,90.1,48.3,90.1,81.82,0,36.4-21.27,62.71-49.73,74.95l42.52,90.1c1.08,2.52-.72,5.41-3.6,5.41h-43.24c-3.6,0-7.22-2.15-8.65-5.41l-38.57-82.17h-33.88v81.45Zm83.97-164.33c0-12.27-6.48-35.32-37.12-35.32h-46.86v71h48.3c29.2-.72,35.67-24.51,35.67-35.67"/><path class="cls-4" d="M4363.08,1212.06c0,3.24-2.88,6.13-6.12,6.13h-38.2c-3.25,0-6.14-2.88-6.14-6.13v-240.03c0-3.24,2.88-6.13,6.14-6.13h89.37c69.2,0,90.1,48.3,90.1,81.82,0,36.4-21.27,62.71-49.73,74.95l42.52,90.1c1.08,2.52-.72,5.41-3.6,5.41h-43.24c-3.6,0-7.22-2.15-8.65-5.41l-38.57-82.17h-33.88v81.45Zm83.97-164.33c0-12.27-6.48-35.32-37.12-35.32h-46.86v71h48.3c29.2-.72,35.67-24.51,35.67-35.67"/><path class="cls-4" d="M4773,1120.16v-148.12c0-3.24,2.88-6.13,6.13-6.13h39.29c3.23,0,6.12,2.88,6.12,6.13v148.12c0,42.53-25.94,100.56-100.18,100.56s-100.19-58.02-100.19-100.56v-148.12c0-3.24,2.88-6.13,6.13-6.13h38.93c3.23,0,6.12,2.88,6.12,6.13v148.12c0,14.78,10.09,54.06,49.02,54.06s48.65-39.28,48.65-54.06"/><path class="cls-4" d="M5017.54,1212.06c0,3.24-2.88,6.13-6.13,6.13h-38.92c-3.24,0-6.13-2.88-6.13-6.13v-240.03c0-3.24,2.88-6.13,6.13-6.13h90.09c69.2,0,90.1,48.3,90.1,81.82,0,49.73-43.6,82.88-85.41,82.88h-49.74v81.45Zm83.97-164.33c0-12.27-6.48-35.32-37.12-35.32h-46.86v71h48.3c29.2-.72,35.67-24.51,35.67-35.67"/><path class="cls-4" d="M5461.74,1037.62c-2.17,2.52-6.13,2.17-8.29-.35-14.78-14.79-39.65-27.39-60.91-27.39-64.51,0-73.53,61.27-73.53,81.8s9.38,81.46,73.88,81.46c21.99,0,46.13-11.53,63.08-25.23,2.52-2.16,6.48-1.8,8.65,.72l20.9,25.59c2.16,2.52,2.16,6.49-.36,9.01-25.23,23.43-54.42,38.2-92.62,38.2-96.23,0-125.42-75.68-125.42-129.75s29.19-129.37,125.42-129.37c41.08,0,69.91,16.93,94.43,42.88,2.15,2.16,2.15,6.13-.37,8.65l-24.86,23.78Z"/><rect class="cls-4" x="5614.88" y="965.9" width="51.17" height="252.28" rx="6.13" ry="6.13"/><path class="cls-4" d="M6046.37,1091.68c0,54.06-29.2,130.46-124.7,130.46s-125.42-76.41-125.42-130.46,29.19-130.1,125.42-130.1,124.7,77.49,124.7,130.1m-51.89,0c0-20.55-9.37-82.52-72.8-82.52s-73.52,61.98-73.52,82.52,9.01,83.25,73.52,83.25,72.8-62.71,72.8-83.25m-60.55-225.25c2.52-1.8,6.48-1.44,8.29,1.45l16.21,22.7c2.16,2.88,1.09,6.49-1.43,8.29l-52.63,32.43c-2.87,1.8-6.49,1.09-8.64-1.79l-11.54-16.58c-2.16-2.89-1.43-6.85,1.09-8.66l48.65-37.84Z"/><path class="cls-4" d="M6183.49,1218.19c-3.24,0-6.13-2.88-6.13-6.13v-243.98c0-2.89,2.16-5.05,4.68-5.05,3.25,0,6.14,1.07,8.66,3.59l143.08,142.37v-136.96c0-3.24,2.88-6.13,6.13-6.13h38.92c3.24,0,6.13,2.88,6.13,6.13v243.99c0,2.52-1.8,4.33-4.33,4.33-2.88,0-5.41-1.08-7.56-2.88l-144.53-145.96v140.56c0,3.24-2.88,6.13-6.13,6.13h-38.92Z"/></svg>